<mxfile host="app.diagrams.net" agent="Mozilla/5.0 (Macintosh; Intel Mac OS X 10_15_7) AppleWebKit/537.36 (KHTML, like Gecko) Chrome/130.0.0.0 Safari/537.36" version="24.8.3" pages="2">
  <diagram name="第 1 页" id="ynK3PyQQX8J9_7JUj5-6">
    <mxGraphModel dx="819" dy="446" grid="1" gridSize="10" guides="1" tooltips="1" connect="1" arrows="1" fold="1" page="1" pageScale="1" pageWidth="827" pageHeight="1169" math="0" shadow="0">
      <root>
        <mxCell id="0" />
        <mxCell id="1" parent="0" />
        <mxCell id="z3OCQATZSgq5O4msNPUZ-25" style="rounded=0;orthogonalLoop=1;jettySize=auto;html=1;exitX=0;exitY=0.75;exitDx=0;exitDy=0;entryX=0.5;entryY=0;entryDx=0;entryDy=0;" edge="1" parent="1" source="z3OCQATZSgq5O4msNPUZ-2" target="z3OCQATZSgq5O4msNPUZ-3">
          <mxGeometry relative="1" as="geometry" />
        </mxCell>
        <mxCell id="z3OCQATZSgq5O4msNPUZ-26" value="init" style="edgeLabel;html=1;align=center;verticalAlign=middle;resizable=0;points=[];" vertex="1" connectable="0" parent="z3OCQATZSgq5O4msNPUZ-25">
          <mxGeometry x="0.004" y="-2" relative="1" as="geometry">
            <mxPoint x="34" y="-29" as="offset" />
          </mxGeometry>
        </mxCell>
        <mxCell id="z3OCQATZSgq5O4msNPUZ-29" style="rounded=0;orthogonalLoop=1;jettySize=auto;html=1;exitX=0.75;exitY=1;exitDx=0;exitDy=0;entryX=0.5;entryY=0;entryDx=0;entryDy=0;" edge="1" parent="1" source="z3OCQATZSgq5O4msNPUZ-2" target="z3OCQATZSgq5O4msNPUZ-5">
          <mxGeometry relative="1" as="geometry" />
        </mxCell>
        <mxCell id="z3OCQATZSgq5O4msNPUZ-30" value="query" style="edgeLabel;html=1;align=center;verticalAlign=middle;resizable=0;points=[];" vertex="1" connectable="0" parent="z3OCQATZSgq5O4msNPUZ-29">
          <mxGeometry x="-0.0157" y="-2" relative="1" as="geometry">
            <mxPoint as="offset" />
          </mxGeometry>
        </mxCell>
        <mxCell id="z3OCQATZSgq5O4msNPUZ-2" value="&lt;span style=&quot;font-size: 13px;&quot;&gt;client/SDK&lt;/span&gt;" style="rounded=0;whiteSpace=wrap;html=1;" vertex="1" parent="1">
          <mxGeometry x="310" y="120" width="80" height="40" as="geometry" />
        </mxCell>
        <mxCell id="z3OCQATZSgq5O4msNPUZ-27" style="rounded=0;orthogonalLoop=1;jettySize=auto;html=1;exitX=0.75;exitY=0;exitDx=0;exitDy=0;entryX=0.25;entryY=1;entryDx=0;entryDy=0;" edge="1" parent="1" source="z3OCQATZSgq5O4msNPUZ-3" target="z3OCQATZSgq5O4msNPUZ-2">
          <mxGeometry relative="1" as="geometry" />
        </mxCell>
        <mxCell id="z3OCQATZSgq5O4msNPUZ-28" value="idc_info" style="edgeLabel;html=1;align=center;verticalAlign=middle;resizable=0;points=[];" vertex="1" connectable="0" parent="z3OCQATZSgq5O4msNPUZ-27">
          <mxGeometry x="-0.0601" relative="1" as="geometry">
            <mxPoint x="-18" y="13" as="offset" />
          </mxGeometry>
        </mxCell>
        <mxCell id="z3OCQATZSgq5O4msNPUZ-3" value="&lt;span style=&quot;font-size: 13px;&quot;&gt;Meta Server&lt;br&gt;&lt;/span&gt;" style="rounded=0;whiteSpace=wrap;html=1;verticalAlign=top;" vertex="1" parent="1">
          <mxGeometry x="150" y="230" width="110" height="120" as="geometry" />
        </mxCell>
        <mxCell id="z3OCQATZSgq5O4msNPUZ-12" value="" style="group" vertex="1" connectable="0" parent="1">
          <mxGeometry x="160" y="260" width="90" height="75" as="geometry" />
        </mxCell>
        <mxCell id="z3OCQATZSgq5O4msNPUZ-6" value="" style="ellipse;whiteSpace=wrap;html=1;aspect=fixed;" vertex="1" parent="z3OCQATZSgq5O4msNPUZ-12">
          <mxGeometry x="40" width="20" height="20" as="geometry" />
        </mxCell>
        <mxCell id="z3OCQATZSgq5O4msNPUZ-7" value="" style="ellipse;whiteSpace=wrap;html=1;aspect=fixed;" vertex="1" parent="z3OCQATZSgq5O4msNPUZ-12">
          <mxGeometry y="55" width="20" height="20" as="geometry" />
        </mxCell>
        <mxCell id="z3OCQATZSgq5O4msNPUZ-9" style="rounded=0;orthogonalLoop=1;jettySize=auto;html=1;exitX=0;exitY=1;exitDx=0;exitDy=0;entryX=0.5;entryY=0;entryDx=0;entryDy=0;startArrow=classic;startFill=1;" edge="1" parent="z3OCQATZSgq5O4msNPUZ-12" source="z3OCQATZSgq5O4msNPUZ-6" target="z3OCQATZSgq5O4msNPUZ-7">
          <mxGeometry relative="1" as="geometry" />
        </mxCell>
        <mxCell id="z3OCQATZSgq5O4msNPUZ-8" value="" style="ellipse;whiteSpace=wrap;html=1;aspect=fixed;" vertex="1" parent="z3OCQATZSgq5O4msNPUZ-12">
          <mxGeometry x="70" y="55" width="20" height="20" as="geometry" />
        </mxCell>
        <mxCell id="z3OCQATZSgq5O4msNPUZ-10" style="rounded=0;orthogonalLoop=1;jettySize=auto;html=1;exitX=1;exitY=1;exitDx=0;exitDy=0;entryX=0.5;entryY=0;entryDx=0;entryDy=0;startArrow=classic;startFill=1;" edge="1" parent="z3OCQATZSgq5O4msNPUZ-12" source="z3OCQATZSgq5O4msNPUZ-6" target="z3OCQATZSgq5O4msNPUZ-8">
          <mxGeometry relative="1" as="geometry">
            <mxPoint x="53" y="27" as="sourcePoint" />
            <mxPoint x="27" y="68" as="targetPoint" />
          </mxGeometry>
        </mxCell>
        <mxCell id="z3OCQATZSgq5O4msNPUZ-11" style="rounded=0;orthogonalLoop=1;jettySize=auto;html=1;exitX=0;exitY=0.5;exitDx=0;exitDy=0;entryX=1;entryY=0.5;entryDx=0;entryDy=0;startArrow=classic;startFill=1;" edge="1" parent="z3OCQATZSgq5O4msNPUZ-12" source="z3OCQATZSgq5O4msNPUZ-8" target="z3OCQATZSgq5O4msNPUZ-7">
          <mxGeometry relative="1" as="geometry">
            <mxPoint x="63" y="37" as="sourcePoint" />
            <mxPoint x="37" y="78" as="targetPoint" />
          </mxGeometry>
        </mxCell>
        <mxCell id="z3OCQATZSgq5O4msNPUZ-13" value="&lt;i&gt;raft&lt;/i&gt;" style="text;html=1;strokeColor=none;fillColor=none;align=center;verticalAlign=middle;whiteSpace=wrap;rounded=0;" vertex="1" parent="1">
          <mxGeometry x="150" y="260" width="30" height="20" as="geometry" />
        </mxCell>
        <mxCell id="z3OCQATZSgq5O4msNPUZ-24" value="" style="group" vertex="1" connectable="0" parent="1">
          <mxGeometry x="280" y="420" width="88" height="48" as="geometry" />
        </mxCell>
        <mxCell id="z3OCQATZSgq5O4msNPUZ-4" value="&lt;span style=&quot;font-size: 13px;&quot;&gt;Control&lt;br&gt;Server&lt;br&gt;&lt;/span&gt;" style="rounded=0;whiteSpace=wrap;html=1;" vertex="1" parent="z3OCQATZSgq5O4msNPUZ-24">
          <mxGeometry width="80" height="40" as="geometry" />
        </mxCell>
        <mxCell id="z3OCQATZSgq5O4msNPUZ-22" value="&lt;span style=&quot;font-size: 13px;&quot;&gt;Control&lt;br&gt;Server&lt;br&gt;&lt;/span&gt;" style="rounded=0;whiteSpace=wrap;html=1;" vertex="1" parent="z3OCQATZSgq5O4msNPUZ-24">
          <mxGeometry x="4" y="4" width="80" height="40" as="geometry" />
        </mxCell>
        <mxCell id="z3OCQATZSgq5O4msNPUZ-23" value="&lt;span style=&quot;font-size: 13px;&quot;&gt;Control&lt;br&gt;Server&lt;br&gt;&lt;/span&gt;" style="rounded=0;whiteSpace=wrap;html=1;" vertex="1" parent="z3OCQATZSgq5O4msNPUZ-24">
          <mxGeometry x="8" y="8" width="80" height="40" as="geometry" />
        </mxCell>
        <mxCell id="z3OCQATZSgq5O4msNPUZ-31" style="rounded=0;orthogonalLoop=1;jettySize=auto;html=1;exitX=0.25;exitY=0;exitDx=0;exitDy=0;entryX=0.75;entryY=1;entryDx=0;entryDy=0;" edge="1" parent="1" source="z3OCQATZSgq5O4msNPUZ-23" target="z3OCQATZSgq5O4msNPUZ-3">
          <mxGeometry relative="1" as="geometry" />
        </mxCell>
        <mxCell id="z3OCQATZSgq5O4msNPUZ-32" value="update&lt;br&gt;topo" style="edgeLabel;html=1;align=center;verticalAlign=middle;resizable=0;points=[];" vertex="1" connectable="0" parent="z3OCQATZSgq5O4msNPUZ-31">
          <mxGeometry x="-0.009" relative="1" as="geometry">
            <mxPoint as="offset" />
          </mxGeometry>
        </mxCell>
        <mxCell id="z3OCQATZSgq5O4msNPUZ-33" value="" style="group" vertex="1" connectable="0" parent="1">
          <mxGeometry x="380" y="250" width="120" height="100" as="geometry" />
        </mxCell>
        <mxCell id="z3OCQATZSgq5O4msNPUZ-5" value="&lt;span style=&quot;font-size: 13px;&quot;&gt;Node&lt;br&gt;&lt;/span&gt;" style="rounded=0;whiteSpace=wrap;html=1;verticalAlign=top;" vertex="1" parent="z3OCQATZSgq5O4msNPUZ-33">
          <mxGeometry width="120" height="100" as="geometry" />
        </mxCell>
        <mxCell id="z3OCQATZSgq5O4msNPUZ-15" value="m" style="ellipse;whiteSpace=wrap;html=1;aspect=fixed;" vertex="1" parent="z3OCQATZSgq5O4msNPUZ-33">
          <mxGeometry x="50" y="30" width="20" height="20" as="geometry" />
        </mxCell>
        <mxCell id="z3OCQATZSgq5O4msNPUZ-16" value="s" style="ellipse;whiteSpace=wrap;html=1;aspect=fixed;" vertex="1" parent="z3OCQATZSgq5O4msNPUZ-33">
          <mxGeometry x="20" y="70" width="20" height="20" as="geometry" />
        </mxCell>
        <mxCell id="z3OCQATZSgq5O4msNPUZ-17" style="rounded=0;orthogonalLoop=1;jettySize=auto;html=1;exitX=0;exitY=1;exitDx=0;exitDy=0;entryX=0.5;entryY=0;entryDx=0;entryDy=0;startArrow=none;startFill=0;" edge="1" parent="z3OCQATZSgq5O4msNPUZ-33" source="z3OCQATZSgq5O4msNPUZ-15" target="z3OCQATZSgq5O4msNPUZ-16">
          <mxGeometry relative="1" as="geometry" />
        </mxCell>
        <mxCell id="z3OCQATZSgq5O4msNPUZ-18" value="s" style="ellipse;whiteSpace=wrap;html=1;aspect=fixed;" vertex="1" parent="z3OCQATZSgq5O4msNPUZ-33">
          <mxGeometry x="80" y="70" width="20" height="20" as="geometry" />
        </mxCell>
        <mxCell id="z3OCQATZSgq5O4msNPUZ-19" style="rounded=0;orthogonalLoop=1;jettySize=auto;html=1;exitX=1;exitY=1;exitDx=0;exitDy=0;entryX=0.5;entryY=0;entryDx=0;entryDy=0;startArrow=none;startFill=0;" edge="1" parent="z3OCQATZSgq5O4msNPUZ-33" source="z3OCQATZSgq5O4msNPUZ-15" target="z3OCQATZSgq5O4msNPUZ-18">
          <mxGeometry relative="1" as="geometry">
            <mxPoint x="73" y="42" as="sourcePoint" />
            <mxPoint x="47" y="83" as="targetPoint" />
          </mxGeometry>
        </mxCell>
        <mxCell id="z3OCQATZSgq5O4msNPUZ-34" style="rounded=0;orthogonalLoop=1;jettySize=auto;html=1;exitX=0.75;exitY=0;exitDx=0;exitDy=0;entryX=0.5;entryY=1;entryDx=0;entryDy=0;" edge="1" parent="1" source="z3OCQATZSgq5O4msNPUZ-23" target="z3OCQATZSgq5O4msNPUZ-5">
          <mxGeometry relative="1" as="geometry" />
        </mxCell>
        <mxCell id="z3OCQATZSgq5O4msNPUZ-35" value="Cmd" style="edgeLabel;html=1;align=center;verticalAlign=middle;resizable=0;points=[];" vertex="1" connectable="0" parent="z3OCQATZSgq5O4msNPUZ-34">
          <mxGeometry x="0.0062" y="3" relative="1" as="geometry">
            <mxPoint as="offset" />
          </mxGeometry>
        </mxCell>
      </root>
    </mxGraphModel>
  </diagram>
  <diagram id="1KWX4ivYcpXneb_u-p8n" name="第 2 页">
    <mxGraphModel dx="954" dy="639" grid="1" gridSize="10" guides="1" tooltips="1" connect="1" arrows="1" fold="1" page="1" pageScale="1" pageWidth="827" pageHeight="1169" math="0" shadow="0">
      <root>
        <mxCell id="0" />
        <mxCell id="1" parent="0" />
        <mxCell id="VZfDSEADWTi2aLQaaKjS-12" value="" style="group" vertex="1" connectable="0" parent="1">
          <mxGeometry x="240" y="70" width="240" height="170" as="geometry" />
        </mxCell>
        <mxCell id="VZfDSEADWTi2aLQaaKjS-1" value="Leader Node" style="rounded=1;whiteSpace=wrap;html=1;shadow=0;glass=0;verticalAlign=top;arcSize=4;" vertex="1" parent="VZfDSEADWTi2aLQaaKjS-12">
          <mxGeometry width="240" height="170" as="geometry" />
        </mxCell>
        <mxCell id="VZfDSEADWTi2aLQaaKjS-2" value="SSD" style="shape=cylinder3;whiteSpace=wrap;html=1;boundedLbl=1;backgroundOutline=1;size=15;" vertex="1" parent="VZfDSEADWTi2aLQaaKjS-12">
          <mxGeometry x="150" y="50" width="60" height="50" as="geometry" />
        </mxCell>
        <mxCell id="VZfDSEADWTi2aLQaaKjS-9" value="" style="group" vertex="1" connectable="0" parent="VZfDSEADWTi2aLQaaKjS-12">
          <mxGeometry x="10" y="120" width="180" height="40" as="geometry" />
        </mxCell>
        <mxCell id="VZfDSEADWTi2aLQaaKjS-3" value="&amp;nbsp;Log" style="rounded=1;whiteSpace=wrap;html=1;align=left;strokeWidth=2;fillColor=#d5e8d4;strokeColor=#82b366;arcSize=10;" vertex="1" parent="VZfDSEADWTi2aLQaaKjS-9">
          <mxGeometry width="180" height="40" as="geometry" />
        </mxCell>
        <mxCell id="VZfDSEADWTi2aLQaaKjS-8" value="" style="group" vertex="1" connectable="0" parent="VZfDSEADWTi2aLQaaKjS-9">
          <mxGeometry x="30" y="10" width="140" height="20" as="geometry" />
        </mxCell>
        <mxCell id="VZfDSEADWTi2aLQaaKjS-4" value="x→1" style="rounded=0;whiteSpace=wrap;html=1;strokeWidth=2;" vertex="1" parent="VZfDSEADWTi2aLQaaKjS-8">
          <mxGeometry width="40" height="20" as="geometry" />
        </mxCell>
        <mxCell id="VZfDSEADWTi2aLQaaKjS-5" value="y→2" style="rounded=0;whiteSpace=wrap;html=1;strokeWidth=2;" vertex="1" parent="VZfDSEADWTi2aLQaaKjS-8">
          <mxGeometry x="40" width="40" height="20" as="geometry" />
        </mxCell>
        <mxCell id="VZfDSEADWTi2aLQaaKjS-6" value="z→3" style="rounded=0;whiteSpace=wrap;html=1;strokeWidth=2;" vertex="1" parent="VZfDSEADWTi2aLQaaKjS-8">
          <mxGeometry x="80" width="40" height="20" as="geometry" />
        </mxCell>
        <mxCell id="VZfDSEADWTi2aLQaaKjS-7" value="..." style="rounded=0;whiteSpace=wrap;html=1;strokeWidth=2;" vertex="1" parent="VZfDSEADWTi2aLQaaKjS-8">
          <mxGeometry x="120" width="20" height="20" as="geometry" />
        </mxCell>
        <mxCell id="VZfDSEADWTi2aLQaaKjS-13" value="" style="group" vertex="1" connectable="0" parent="1">
          <mxGeometry x="80" y="320" width="240" height="170" as="geometry" />
        </mxCell>
        <mxCell id="VZfDSEADWTi2aLQaaKjS-14" value="Follower Node" style="rounded=1;whiteSpace=wrap;html=1;shadow=0;glass=0;verticalAlign=top;arcSize=4;" vertex="1" parent="VZfDSEADWTi2aLQaaKjS-13">
          <mxGeometry width="240" height="170" as="geometry" />
        </mxCell>
        <mxCell id="VZfDSEADWTi2aLQaaKjS-15" value="SSD" style="shape=cylinder3;whiteSpace=wrap;html=1;boundedLbl=1;backgroundOutline=1;size=15;" vertex="1" parent="VZfDSEADWTi2aLQaaKjS-13">
          <mxGeometry x="150" y="50" width="60" height="50" as="geometry" />
        </mxCell>
        <mxCell id="VZfDSEADWTi2aLQaaKjS-16" value="" style="group" vertex="1" connectable="0" parent="VZfDSEADWTi2aLQaaKjS-13">
          <mxGeometry x="10" y="120" width="180" height="40" as="geometry" />
        </mxCell>
        <mxCell id="VZfDSEADWTi2aLQaaKjS-17" value="&amp;nbsp;Log" style="rounded=1;whiteSpace=wrap;html=1;align=left;strokeWidth=2;fillColor=#d5e8d4;strokeColor=#82b366;arcSize=10;" vertex="1" parent="VZfDSEADWTi2aLQaaKjS-16">
          <mxGeometry width="180" height="40" as="geometry" />
        </mxCell>
        <mxCell id="VZfDSEADWTi2aLQaaKjS-18" value="" style="group" vertex="1" connectable="0" parent="VZfDSEADWTi2aLQaaKjS-16">
          <mxGeometry x="30" y="10" width="140" height="20" as="geometry" />
        </mxCell>
        <mxCell id="VZfDSEADWTi2aLQaaKjS-19" value="x→1" style="rounded=0;whiteSpace=wrap;html=1;strokeWidth=2;" vertex="1" parent="VZfDSEADWTi2aLQaaKjS-18">
          <mxGeometry width="40" height="20" as="geometry" />
        </mxCell>
        <mxCell id="VZfDSEADWTi2aLQaaKjS-20" value="y→2" style="rounded=0;whiteSpace=wrap;html=1;strokeWidth=2;" vertex="1" parent="VZfDSEADWTi2aLQaaKjS-18">
          <mxGeometry x="40" width="40" height="20" as="geometry" />
        </mxCell>
        <mxCell id="VZfDSEADWTi2aLQaaKjS-21" value="z→3" style="rounded=0;whiteSpace=wrap;html=1;strokeWidth=2;" vertex="1" parent="VZfDSEADWTi2aLQaaKjS-18">
          <mxGeometry x="80" width="40" height="20" as="geometry" />
        </mxCell>
        <mxCell id="VZfDSEADWTi2aLQaaKjS-22" value="..." style="rounded=0;whiteSpace=wrap;html=1;strokeWidth=2;" vertex="1" parent="VZfDSEADWTi2aLQaaKjS-18">
          <mxGeometry x="120" width="20" height="20" as="geometry" />
        </mxCell>
        <mxCell id="VZfDSEADWTi2aLQaaKjS-24" value="" style="group" vertex="1" connectable="0" parent="1">
          <mxGeometry x="400" y="320" width="240" height="170" as="geometry" />
        </mxCell>
        <mxCell id="VZfDSEADWTi2aLQaaKjS-25" value="Follower Node" style="rounded=1;whiteSpace=wrap;html=1;shadow=0;glass=0;verticalAlign=top;arcSize=4;" vertex="1" parent="VZfDSEADWTi2aLQaaKjS-24">
          <mxGeometry width="240" height="170" as="geometry" />
        </mxCell>
        <mxCell id="VZfDSEADWTi2aLQaaKjS-26" value="SSD" style="shape=cylinder3;whiteSpace=wrap;html=1;boundedLbl=1;backgroundOutline=1;size=15;" vertex="1" parent="VZfDSEADWTi2aLQaaKjS-24">
          <mxGeometry x="150" y="50" width="60" height="50" as="geometry" />
        </mxCell>
        <mxCell id="VZfDSEADWTi2aLQaaKjS-27" value="" style="group" vertex="1" connectable="0" parent="VZfDSEADWTi2aLQaaKjS-24">
          <mxGeometry x="10" y="120" width="180" height="40" as="geometry" />
        </mxCell>
        <mxCell id="VZfDSEADWTi2aLQaaKjS-28" value="&amp;nbsp;Log" style="rounded=1;whiteSpace=wrap;html=1;align=left;strokeWidth=2;fillColor=#d5e8d4;strokeColor=#82b366;arcSize=10;" vertex="1" parent="VZfDSEADWTi2aLQaaKjS-27">
          <mxGeometry width="180" height="40" as="geometry" />
        </mxCell>
        <mxCell id="VZfDSEADWTi2aLQaaKjS-29" value="" style="group" vertex="1" connectable="0" parent="VZfDSEADWTi2aLQaaKjS-27">
          <mxGeometry x="30" y="10" width="140" height="20" as="geometry" />
        </mxCell>
        <mxCell id="VZfDSEADWTi2aLQaaKjS-30" value="x→1" style="rounded=0;whiteSpace=wrap;html=1;strokeWidth=2;" vertex="1" parent="VZfDSEADWTi2aLQaaKjS-29">
          <mxGeometry width="40" height="20" as="geometry" />
        </mxCell>
        <mxCell id="VZfDSEADWTi2aLQaaKjS-31" value="y→2" style="rounded=0;whiteSpace=wrap;html=1;strokeWidth=2;" vertex="1" parent="VZfDSEADWTi2aLQaaKjS-29">
          <mxGeometry x="40" width="40" height="20" as="geometry" />
        </mxCell>
        <mxCell id="VZfDSEADWTi2aLQaaKjS-32" value="z→3" style="rounded=0;whiteSpace=wrap;html=1;strokeWidth=2;" vertex="1" parent="VZfDSEADWTi2aLQaaKjS-29">
          <mxGeometry x="80" width="40" height="20" as="geometry" />
        </mxCell>
        <mxCell id="VZfDSEADWTi2aLQaaKjS-33" value="..." style="rounded=0;whiteSpace=wrap;html=1;strokeWidth=2;" vertex="1" parent="VZfDSEADWTi2aLQaaKjS-29">
          <mxGeometry x="120" width="20" height="20" as="geometry" />
        </mxCell>
      </root>
    </mxGraphModel>
  </diagram>
</mxfile>
